<?xml version="1.0" encoding="UTF-8"?>
<svg width="600" height="415" version="1.1" xmlns="http://www.w3.org/2000/svg">
 <path d="m572.07 48.355c-162.74 1.4249-189.83 28.104-226.68 95.219l180.05 0.0822zm8.2112-19.72 9.7274-19.025h-266.89c-90.497 0-136.67 30.808-164.75 87.894-21.967 44.646-21.903 44.673-21.903 44.673h121.21c43.12-83.117 95.639-111.77 224.08-113.54zm-341.24 158.11-126.96 12.933-85.583 170.78c67.681 0 102.42-6.6219 142-63.415 16.715-24.296 46.326-72.65 70.54-120.3" fill="#006564"/>
 <path d="m402.44 280.15c-10.696 60.31-57.99 107.91-118.01 118.88 0 0-35.914 6.3205-59.488 6.3388-23.565 0.0183-214.94 0-214.94 0l8.2934-17.007s72.796-0.56629 82.55-0.56629c25.099 0.56629 70.567-4.9596 70.567-4.9596 51.331-5.462 91.711-39.129 104.54-88.076l14.459-49.386c7.855-40.946 43.696-71.919 86.724-71.919l139.26-8.8597-6.6676 13.427-42.892 2.6579c-31.904 2.6122-57.497 27.648-61.077 59.406l-3.3338 40.051z" fill="#dc062b"/>
</svg>
